<?xml version="1.0" encoding="UTF-8" standalone="no"?>
<!-- Created with Inkscape (http://www.inkscape.org/) -->

<svg
   width="512"
   height="512"
   viewBox="0 0 135.46665 135.46664"
   version="1.1"
   id="svg8"
   inkscape:version="1.3.2 (091e20e, 2023-11-25, custom)"
   sodipodi:docname="caixa_4.svg"
   inkscape:export-filename="caixa_4.png"
   inkscape:export-xdpi="96"
   inkscape:export-ydpi="96"
   xmlns:inkscape="http://www.inkscape.org/namespaces/inkscape"
   xmlns:sodipodi="http://sodipodi.sourceforge.net/DTD/sodipodi-0.dtd"
   xmlns="http://www.w3.org/2000/svg"
   xmlns:svg="http://www.w3.org/2000/svg"
   xmlns:rdf="http://www.w3.org/1999/02/22-rdf-syntax-ns#"
   xmlns:cc="http://creativecommons.org/ns#"
   xmlns:dc="http://purl.org/dc/elements/1.1/">
  <defs
     id="defs2" />
  <sodipodi:namedview
     id="base"
     pagecolor="#ffffff"
     bordercolor="#666666"
     borderopacity="1.0"
     inkscape:pageopacity="0.0"
     inkscape:pageshadow="2"
     inkscape:zoom="0.65996635"
     inkscape:cx="303.04575"
     inkscape:cy="368.95821"
     inkscape:document-units="mm"
     inkscape:current-layer="layer1"
     showgrid="false"
     inkscape:window-width="2560"
     inkscape:window-height="1009"
     inkscape:window-x="1358"
     inkscape:window-y="-8"
     inkscape:window-maximized="1"
     units="px"
     inkscape:showpageshadow="2"
     inkscape:pagecheckerboard="0"
     inkscape:deskcolor="#d1d1d1" />
  <metadata
     id="metadata5">
    <rdf:RDF>
      <cc:Work
         rdf:about="">
        <dc:format>image/svg+xml</dc:format>
        <dc:type
           rdf:resource="http://purl.org/dc/dcmitype/StillImage" />
      </cc:Work>
    </rdf:RDF>
  </metadata>
  <g
     inkscape:label="Camada 1"
     inkscape:groupmode="layer"
     id="layer1"
     transform="translate(0,-58.874983)">
    <path
       style="fill:#000000;stroke:#000000;stroke-width:0.306496;stroke-miterlimit:4;stroke-dasharray:none;stroke-opacity:1"
       d=""
       id="path895"
       inkscape:connector-curvature="0"
       transform="matrix(0.26458333,0,0,0.26458333,0,58.874983)" />
    <path
       style="fill:#000000;stroke:#000000;stroke-width:0.306496;stroke-miterlimit:4;stroke-dasharray:none;stroke-opacity:1"
       d=""
       id="path897"
       inkscape:connector-curvature="0"
       transform="matrix(0.26458333,0,0,0.26458333,0,58.874983)" />
    <path
       style="fill:#000000;stroke:#000000;stroke-width:0.153248;stroke-miterlimit:4;stroke-dasharray:none;stroke-opacity:1"
       d=""
       id="path903"
       inkscape:connector-curvature="0"
       transform="matrix(0.26458333,0,0,0.26458333,0,58.874983)" />
    <g
       id="g1"
       transform="translate(0.10793125,14.209433)">
      <rect
         id="rect3793-1"
         width="79.938667"
         height="79.938667"
         x="-194.40005"
         y="-114.16319"
         style="stroke:#000000;stroke-width:1.26962;stroke-miterlimit:4;stroke-dasharray:none;stroke-opacity:1"
         transform="matrix(-0.8427518,-0.53830234,0.8427518,-0.53830234,0,0)"
         ry="6.2043972" />
      <rect
         id="rect3793"
         width="79.938667"
         height="79.938667"
         x="-174.58469"
         y="-94.334435"
         style="fill:#ccff00;fill-opacity:1;stroke:#000000;stroke-width:1.26962;stroke-miterlimit:4;stroke-dasharray:none;stroke-opacity:1"
         transform="matrix(-0.8427518,-0.53830234,0.8427518,-0.53830234,0,0)"
         ry="6.2043972" />
      <path
         style="fill:none;stroke:#000000;stroke-width:0.461611px;stroke-linecap:butt;stroke-linejoin:miter;stroke-opacity:1"
         d="m 132.3243,101.95152 -0.0348,21.11762"
         id="path831"
         inkscape:connector-curvature="0" />
      <path
         style="fill:none;stroke:#000000;stroke-width:0.631691px;stroke-linecap:butt;stroke-linejoin:miter;stroke-opacity:1"
         d="M 2.947,123.72838 2.9427,101.25846"
         id="path833"
         inkscape:connector-curvature="0"
         sodipodi:nodetypes="cc" />
      <path
         style="fill:none;stroke:#000000;stroke-width:0.324375;stroke-miterlimit:4;stroke-dasharray:none;stroke-opacity:1"
         d="m 3.2597411,112.36556 v -8.45396 l 0.2855674,0.32995 c 0.1570619,0.18147 0.4520591,0.47239 0.6555528,0.64648 0.2034911,0.17409 2.8734861,1.91367 5.9333207,3.86573 3.059835,1.95206 5.589323,3.57227 5.621081,3.60048 0.03176,0.0282 -2.232554,1.51249 -5.031809,3.29841 -6.5375707,4.17098 -6.2726249,3.99373 -6.9144671,4.6259 l -0.5492458,0.54097 z"
         id="path851"
         inkscape:connector-curvature="0" />
      <path
         style="fill:none;stroke:#000000;stroke-width:0.324375;stroke-miterlimit:4;stroke-dasharray:none;stroke-opacity:1"
         d="m 3.4723523,112.39042 v -7.91513 l 0.4205975,0.37802 c 0.4510088,0.40535 1.6619564,1.20233 7.5492692,4.96853 2.067565,1.32265 3.800408,2.44388 3.850767,2.49162 0.0735,0.0697 -0.04533,0.17589 -0.602398,0.53845 -0.38168,0.24841 -1.092608,0.71108 -1.579843,1.02815 -0.487236,0.31707 -2.273173,1.46369 -3.9687503,2.54805 -4.0807428,2.60972 -4.8281431,3.10835 -5.2850388,3.52592 l -0.3846036,0.35151 z"
         id="path853"
         inkscape:connector-curvature="0" />
      <path
         style="fill:none;stroke:#000000;stroke-width:0.324375;stroke-miterlimit:4;stroke-dasharray:none;stroke-opacity:1"
         d="m 3.6849635,112.3912 c 0,-5.91254 0.017965,-7.40612 0.088588,-7.36612 0.048723,0.0276 0.1523735,0.10579 0.2303304,0.17379 0.2429377,0.21191 2.535584,1.71335 6.7327011,4.4092 2.221791,1.42707 4.098464,2.63844 4.170389,2.69191 0.150669,0.11203 0.727069,-0.27855 -5.3397547,3.61832 -3.8159663,2.45109 -4.9932959,3.22397 -5.5810546,3.66379 l -0.301199,0.22539 z"
         id="path855"
         inkscape:connector-curvature="0" />
      <path
         style="fill:#000000;stroke:#000000;stroke-width:0.0810937;stroke-miterlimit:4;stroke-dasharray:none;stroke-opacity:1"
         d="m 3.8630704,112.72423 c 0.00587,-3.70055 0.015214,-6.87673 0.020743,-7.05819 l 0.010028,-0.32991 0.2776749,0.19487 c 0.7504165,0.52665 2.2415632,1.49721 7.5419087,4.90894 1.568518,1.00962 2.468599,1.59029 2.814915,1.816 l 0.192709,0.1256 -0.600213,0.39708 c -0.330117,0.21839 -1.939665,1.25793 -3.576775,2.31008 -4.9323938,3.17 -5.9526377,3.83596 -6.5412933,4.26983 -0.07013,0.0517 -0.1326595,0.094 -0.1389513,0.094 -0.0063,0 -0.00661,-3.02773 -7.937e-4,-6.72828 z"
         id="path893"
         inkscape:connector-curvature="0" />
      <path
         style="fill:#000000;stroke:#000000;stroke-width:0.00716774;stroke-miterlimit:4;stroke-dasharray:none;stroke-opacity:1"
         d="m 3.634944,104.88488 -6.08e-5,-0.0446 0.00508,0.005 c 0.0028,0.003 0.012832,0.0116 0.022331,0.0201 0.00947,0.008 0.018547,0.0166 0.020135,0.0181 0.00283,0.003 0.00238,0.003 -0.00939,0.0109 -0.00677,0.004 -0.018098,0.0142 -0.025162,0.0217 l -0.012859,0.0136 z"
         id="path899"
         inkscape:connector-curvature="0" />
      <path
         style="fill:#000000;stroke:#000000;stroke-width:0.162187;stroke-miterlimit:4;stroke-dasharray:none;stroke-opacity:1"
         d="m 131.86633,120.76816 c -0.27629,-0.37633 -0.89469,-0.93978 -1.41618,-1.29033 -0.25894,-0.17407 -2.8515,-1.83651 -5.76124,-3.6943 -2.90974,-1.8578 -5.2777,-3.38873 -5.26214,-3.40206 0.0156,-0.0133 2.49991,-1.60149 5.52077,-3.52924 3.02085,-1.92775 5.64596,-3.61909 5.83357,-3.75854 0.39374,-0.29266 0.89983,-0.78759 1.12772,-1.10284 0.0867,-0.12001 0.15946,-0.21475 0.1616,-0.21054 0.002,0.004 -0.005,3.87975 -0.016,8.61233 l -0.0199,8.60469 z"
         id="path901"
         inkscape:connector-curvature="0" />
      <path
         style="fill:#000000;stroke:#000000;stroke-width:0.00473047;stroke-miterlimit:4;stroke-dasharray:none;stroke-opacity:1"
         d="m 3.8472404,119.48008 c 0,-0.002 2.355e-4,-0.003 0.00159,-0.001 0.00106,0.001 0.00132,0.002 2.646e-4,0.003 -0.00159,0.002 -0.00185,0.002 -0.00185,-10e-4 z"
         id="path905"
         inkscape:connector-curvature="0" />
      <path
         style="fill:#000000;fill-opacity:1;stroke:#000000;stroke-width:0.264583px;stroke-linecap:butt;stroke-linejoin:miter;stroke-opacity:1"
         d="m 3.259741,103.9116 c 0.05154,0.14015 0.107709,0.27869 0.154628,0.42046 0.0049,0.0148 0,0.0312 0,0.0468 0,0.044 -0.0089,0.20726 0,0.23386 0.007,0.0209 0.03691,0.0271 0.04677,0.0468 0.007,0.0139 0,0.0312 0,0.0468 0,0.0312 -0.0061,0.063 0,0.0935 0.0097,0.0483 0.0371,0.092 0.04677,0.14032 0.0061,0.0306 -0.0099,0.064 0,0.0935 0.007,0.0209 0.0398,0.0258 0.04677,0.0468 0.0099,0.0296 0,0.0624 0,0.0935 0,0.0624 -0.0088,0.12535 0,0.18709 0.007,0.0488 0.03867,0.0917 0.04677,0.14031 0.0077,0.0461 -0.0077,0.0942 0,0.14032 0.0081,0.0486 0.0371,0.092 0.04677,0.14032 0.0061,0.0306 -0.0051,0.0628 0,0.0935 0.01058,0.0634 0.03768,0.12345 0.04677,0.18709 0.0066,0.0463 0,0.0935 0,0.14032 0,0.078 0,0.1559 0,0.23386 0,0.0468 -0.0058,0.0939 0,0.14031 0.0099,0.0789 0.0337,0.15545 0.04677,0.23387 0.0026,0.0154 -0.0031,0.0315 0,0.0468 0.01259,0.063 0.0388,0.1233 0.04677,0.18709 0.0077,0.0619 0,0.12472 0,0.18709 0,0.0312 -0.0061,0.063 0,0.0935 0.0097,0.0483 0.03867,0.0917 0.04677,0.14031 0.01537,0.0923 -0.01323,0.18803 0,0.28064 0.0091,0.0636 0.03768,0.12345 0.04677,0.18709 0.0066,0.0463 0,0.0935 0,0.14031 0,0.1715 0,0.343 0,0.5145 0,0.38977 0,0.77953 0,1.1693 0,0.20268 0,0.40536 0,0.60804 0,0.0468 0,0.0935 0,0.14031 0,0.0468 0.0077,0.0942 0,0.14032 -0.0081,0.0486 -0.0371,0.092 -0.04677,0.14032 -0.0061,0.0306 0.0039,0.0626 0,0.0935 -0.01177,0.0941 -0.03336,0.18675 -0.04677,0.28064 -0.01553,0.10875 0.02003,0.274 0,0.37417 -0.0068,0.0342 -0.03993,0.0594 -0.04677,0.0935 -0.0092,0.0459 0.0092,0.0945 0,0.14031 -0.0068,0.0342 -0.03118,0.0624 -0.04677,0.0936 -0.01558,0.0468 -0.03867,0.0917 -0.04677,0.14032 -0.01537,0.0923 0.01834,0.1889 0,0.28063 -0.0068,0.0342 -0.03118,0.0624 -0.04677,0.0935 0,0.0468 0.0077,0.0942 0,0.14032 -0.06843,0.41057 -0.0172,-0.0715 -0.09355,0.23386 -0.0076,0.0302 0.0076,0.0633 0,0.0935 -0.0084,0.0338 -0.03382,0.0612 -0.04677,0.0936 -0.115986,0.0441 -0.02646,0.1261 -0.04677,0.18709 -0.01103,0.0331 -0.03832,0.0597 -0.04677,0.0935 -0.0089,0.0356 0,0.19469 0,0.23386 0,0.0312 0.0099,0.064 0,0.0935 -0.007,0.0209 -0.0398,0.0258 -0.04677,0.0468 -0.0099,0.0296 0.0076,0.0633 0,0.0935 -0.0085,0.0338 -0.03575,0.0605 -0.04677,0.0935 -0.0049,0.0148 0,0.0312 0,0.0468 0,0.008 0.0057,0.26348 0,0.28063 -0.007,0.0209 -0.03118,0.0312 -0.04677,0.0468 -0.01558,0.0312 -0.03575,0.0605 -0.04677,0.0935 -0.0049,0.0148 0,0.0312 0,0.0468 0,0.0312 0,0.0624 0,0.0936 0,0.0779 0,0.1559 0,0.23386 0,0.0468 0,0.0935 0,0.14031 0,0.0156 0.007,0.0328 0,0.0468 -0.0099,0.0197 -0.03691,0.0271 -0.04677,0.0468 -0.007,0.0139 0,0.0312 0,0.0468 0,0.0334 0.008,0.25669 0,0.28063 -0.007,0.0209 -0.03691,0.0271 -0.04677,0.0468 -0.0085,0.017 0,0.20692 0,0.23386 0,0.0935 0,0.18709 0,0.28064 0,0.0312 0,0.0624 0,0.0935 0,0.0312 0.0099,0.064 0,0.0935 -0.007,0.0209 -0.03691,0.0271 -0.04677,0.0468 -0.007,0.0139 0,0.0312 0,0.0468 0,0.0382 0.0079,0.3037 0,0.32741 -0.007,0.0209 -0.03691,0.0271 -0.04677,0.0468 -0.007,0.0139 0,0.0312 0,0.0468 0,0.0156 0,0.0312 0,0.0468 0,0.0624 0,0.12473 0,0.18709 0,0.20268 0,0.40536 0,0.60804 0,0.0156 0,0.0312 0,0.0468 0,0.0156 0.007,0.0328 0,0.0468 -0.0099,0.0197 -0.03691,0.0271 -0.04677,0.0468 -0.007,0.0139 0,0.0312 0,0.0468 0,0.0156 0,0.0312 0,0.0468 0,0.0624 0,0.12473 0,0.18709 0,0.26504 0,0.53008 0,0.79513 0,0.24945 0,0.4989 0,0.74835 0,0.12473 0,0.24945 0,0.37418 0,0.0312 0,0.0624 0,0.0935 0,0.0156 -0.0038,0.0316 0,0.0468 0.01196,0.0478 0.03482,0.0925 0.04677,0.14032 0.0038,0.0151 -0.007,0.0328 0,0.0468 0.0099,0.0197 0.03691,0.0271 0.04677,0.0468 0.0069,0.0139 0,0.2354 0,0.28064 0,0.0156 0,0.0312 0,0.0468 0,0.0156 -0.01103,0.0358 0,0.0468 0.01103,0.011 0.0398,-0.0139 0.04677,0 0.01394,0.0279 -0.0099,0.064 0,0.0935 0.007,0.0209 0.03691,0.0271 0.04677,0.0468 0.01468,0.0294 -0.01471,0.15769 0,0.18709 0.0099,0.0197 0.03691,0.0271 0.04677,0.0468 0.007,0.0139 -0.007,0.0328 0,0.0468 0.0099,0.0197 0.03691,0.027 0.04677,0.0468 0.007,0.0139 -0.007,0.0328 0,0.0468 0.0099,0.0197 0.03118,0.0312 0.04677,0.0468 0.03118,0.0312 0.06708,0.0583 0.09354,0.0935 0.02093,0.0279 0.02212,0.0689 0.04677,0.0935 0.02466,0.0247 0.06889,0.0221 0.09354,0.0468 0.02466,0.0247 0.01889,0.0726 0.04677,0.0935 0.03944,0.0296 0.09454,0.0285 0.140317,0.0468 0.03237,0.0129 0.06118,0.0338 0.09354,0.0468 0.04578,0.0183 0.09355,0.0312 0.140317,0.0468 0.09355,0.0312 0.183943,0.0742 0.280633,0.0935 0.06115,0.0122 0.124727,0 0.187089,0 0.171498,0 0.342995,0 0.514496,0 0.155905,0 0.311814,0 0.46772,0 0.109135,0 0.218421,0.006 0.327406,0 0.187478,-0.01 0.374978,-0.0235 0.561265,-0.0468 0.188204,-0.0235 0.373918,-0.064 0.561266,-0.0935 0.108895,-0.0172 0.218792,-0.0279 0.327406,-0.0468 0.250045,-0.0435 0.497507,-0.10173 0.748353,-0.14032 0.154863,-0.0238 0.312111,-0.0285 0.467723,-0.0468 0.109487,-0.0129 0.21813,-0.0322 0.327406,-0.0468 0.344093,-0.0459 0.579575,-0.063 0.935442,-0.14032 0.173704,-0.0378 0.339436,-0.10942 0.514493,-0.14032 0.09212,-0.0162 0.187089,0 0.280633,0 0.187089,-0.0312 0.375666,-0.0545 0.561268,-0.0935 0.111067,-0.0234 0.215734,-0.0732 0.327404,-0.0935 0.613259,-0.1115 -0.433134,0.20593 0.514495,-0.0468 0.124725,-0.0468 0.249449,-0.0935 0.374177,-0.14032 0.06236,0 0.126211,0.0135 0.187089,0 0.08196,-0.0182 0.152051,-0.0747 0.23386,-0.0935 0.122478,-0.0283 0.249743,-0.029 0.374176,-0.0468 0.09388,-0.0134 0.186381,-0.0363 0.280633,-0.0468 0.04649,-0.005 0.09383,0.005 0.140317,0 0.148045,0.0491 0.284877,-0.0709 0.420949,-0.0936 0.04614,-0.008 0.09418,0.008 0.140317,0 0.04863,-0.008 0.09169,-0.0387 0.140316,-0.0468 0.04614,-0.008 0.09355,0 0.140317,0 0.09355,0 0.187089,0 0.280633,0 0.03118,0 0.06297,0.006 0.09355,0 0.04834,-0.01 0.09197,-0.0371 0.140316,-0.0468 0.03057,-0.006 0.06236,0 0.09354,0 0.109135,0 0.21827,0 0.327406,0 0.21827,0 0.436538,0 0.654809,0 0.09354,0 0.187089,0 0.280633,0 0.04677,0 0.09445,0.009 0.140316,0 0.03419,-0.007 0.05973,-0.0383 0.09355,-0.0468 0.03557,-0.009 0.194694,0 0.23386,0 0.01558,0 0.03198,0.005 0.04677,0 0.03307,-0.011 0.06454,-0.0274 0.09354,-0.0468 0.01833,-0.0122 0.02585,-0.0398 0.04677,-0.0468 0.02958,-0.01 0.06396,0.01 0.09354,0 0.02093,-0.007 0.02705,-0.0369 0.04677,-0.0468 0.01394,-0.007 0.03283,0.007 0.04677,0 0.01971,-0.01 0.02705,-0.0369 0.04677,-0.0468 0.01394,-0.007 0.0338,0.009 0.04677,0 0.03669,-0.0245 0.06236,-0.0624 0.09354,-0.0935 0.01558,-0.0156 0.02705,-0.0369 0.04677,-0.0468 0.01394,-0.007 0.03283,0.007 0.04677,0 0.01971,-0.01 0.03118,-0.0312 0.04677,-0.0468 0.04677,-0.0468 0.0874,-0.10063 0.140316,-0.14032 0.04497,-0.0337 0.09534,-0.0598 0.140317,-0.0935 0.01765,-0.0132 0.03118,-0.0312 0.04677,-0.0468 0.01558,-0.0156 0.03454,-0.0284 0.04677,-0.0468 0.01934,-0.029 0.02744,-0.0645 0.04677,-0.0935 0.02445,-0.0367 0.06908,-0.0569 0.09354,-0.0935 0.01934,-0.029 0.03118,-0.0624 0.04677,-0.0935 0.01558,-0.0312 0.03575,-0.0605 0.04677,-0.0935 0.0049,-0.0148 -0.0049,-0.032 0,-0.0468 0.02204,-0.0661 0.07663,-0.11944 0.09354,-0.18708 0.0076,-0.0303 -0.01394,-0.0657 0,-0.0935 0.01971,-0.0394 0.07086,-0.0557 0.09354,-0.0935 0.169396,-0.28233 -0.02455,-0.0199 0.04677,-0.23386 0.007,-0.0209 0.03118,-0.0312 0.04677,-0.0468 0.01558,-0.0312 0.03832,-0.0597 0.04677,-0.0935 0.0076,-0.0303 -0.0099,-0.064 0,-0.0936 0.01394,-0.0418 0.06909,-0.0568 0.09355,-0.0935 0.157522,-0.23628 2.65e-4,-0.001 0.04677,-0.14032 0.112932,-0.33879 -0.01349,0.0737 0.09355,-0.14031 0.007,-0.0139 0,-0.0312 0,-0.0468 0,-0.0312 -0.0099,-0.064 0,-0.0935 0.01394,-0.0418 0.0796,-0.0517 0.09354,-0.0935 0.0099,-0.0296 0,-0.0624 0,-0.0935 0,-0.0156 -0.007,-0.0328 0,-0.0468 0.0099,-0.0197 0.03118,-0.0312 0.04677,-0.0468 0,-0.0312 -0.0099,-0.064 0,-0.0935 0.007,-0.0209 0.0398,-0.0258 0.04677,-0.0468 0.0099,-0.0296 0,-0.0624 0,-0.0935 0,-0.0156 -0.007,-0.0328 0,-0.0468 0.0099,-0.0197 0.03691,-0.0271 0.04677,-0.0468 0.007,-0.0139 -0.0049,-0.032 0,-0.0468 0.01103,-0.0331 0.03575,-0.0605 0.04677,-0.0935 0.0099,-0.0296 -0.0099,-0.064 0,-0.0935 0.01103,-0.0331 0.03993,-0.0594 0.04677,-0.0935 0.0092,-0.0459 0,-0.0935 0,-0.14032 0,-0.0156 -0.007,-0.0328 0,-0.0468 0.0099,-0.0197 0.0398,-0.0259 0.04677,-0.0468 0.0099,-0.0296 0,-0.0624 0,-0.0935 0,-0.0312 0,-0.0624 0,-0.0935 0,-0.15591 0,-0.31182 0,-0.46772 0,-0.12473 0,-0.24946 0,-0.37418 0,-0.0468 0.01135,-0.0949 0,-0.14032 -0.0053,-0.0214 -0.03691,-0.0271 -0.04677,-0.0468 -0.0209,-0.0418 0.02093,-0.0985 0,-0.14032 -0.007,-0.0139 -0.03118,0 -0.04677,0 -0.01558,-0.0156 -0.0398,-0.0258 -0.04677,-0.0468 -0.0099,-0.0296 0.0099,-0.064 0,-0.0935 -0.007,-0.0209 -0.03454,-0.0284 -0.04677,-0.0468 -0.01934,-0.029 -0.03575,-0.0605 -0.04677,-0.0935 -0.0049,-0.0148 0.01103,-0.0357 0,-0.0468 -0.02466,-0.0247 -0.06889,-0.0221 -0.09355,-0.0468 -0.01103,-0.011 0.007,-0.0328 0,-0.0468 -0.0099,-0.0197 -0.03454,-0.0284 -0.04677,-0.0468 -0.01934,-0.029 -0.01889,-0.0726 -0.04677,-0.0935 -0.03944,-0.0296 -0.100875,-0.0172 -0.140317,-0.0468 -0.02789,-0.0209 -0.02212,-0.0689 -0.04677,-0.0936 -0.02466,-0.0247 -0.06454,-0.0274 -0.09354,-0.0468 -0.02879,-0.0192 -0.06476,-0.0744 -0.09354,-0.0935 -0.02901,-0.0193 -0.06047,-0.0357 -0.09355,-0.0468 -0.01479,-0.005 -0.03575,0.011 -0.04677,0 -0.02466,-0.0247 -0.01775,-0.0742 -0.04677,-0.0935 -0.02596,-0.0173 -0.06396,0.01 -0.09354,0 -0.07185,-0.024 -0.03624,-0.10212 -0.09355,-0.14032 -0.02595,-0.0173 -0.06396,0.01 -0.09354,0 -0.04183,-0.0139 -0.0541,-0.0738 -0.09354,-0.0935 -0.01394,-0.007 -0.03118,0 -0.04677,0 -0.03118,-0.0156 -0.06454,-0.0274 -0.09354,-0.0468 -0.01834,-0.0122 -0.02843,-0.0346 -0.04677,-0.0468 -0.02901,-0.0193 -0.06454,-0.0274 -0.09354,-0.0468 -0.03073,-0.0205 -0.115003,-0.13188 -0.140316,-0.14032 -0.02958,-0.01 -0.06566,0.014 -0.09355,0 -0.01394,-0.007 0.01103,-0.0357 0,-0.0468 -0.01103,-0.011 -0.03283,0.007 -0.04677,0 -0.03944,-0.0197 -0.0541,-0.0738 -0.09355,-0.0935 -0.01394,-0.007 -0.0338,0.009 -0.04677,0 -0.03669,-0.0245 -0.05827,-0.0671 -0.09355,-0.0935 -0.02789,-0.0209 -0.06454,-0.0274 -0.09354,-0.0468 -0.03669,-0.0245 -0.0541,-0.0738 -0.09354,-0.0935 -0.01394,-0.007 -0.03283,0.007 -0.04677,0 -0.03944,-0.0197 -0.05685,-0.0691 -0.09354,-0.0935 -0.02901,-0.0193 -0.06454,-0.0274 -0.09355,-0.0468 -0.04258,-0.0284 -0.09886,-0.11959 -0.140316,-0.14032 -0.01394,-0.007 -0.03575,0.011 -0.04677,0 -0.01103,-0.011 0.01103,-0.0357 0,-0.0468 -0.01103,-0.011 -0.0338,0.009 -0.04677,0 -0.03669,-0.0245 -0.05685,-0.0691 -0.09355,-0.0935 -0.01296,-0.009 -0.03575,0.011 -0.04677,0 -0.03975,-0.0397 -0.0538,-0.10057 -0.09355,-0.14032 -0.01103,-0.011 -0.03575,0.011 -0.04677,0 -0.02466,-0.0247 -0.02212,-0.0689 -0.04677,-0.0935 -0.01103,-0.011 -0.03283,0.007 -0.04677,0 -0.01971,-0.01 -0.03118,-0.0312 -0.04677,-0.0468 -0.02751,-0.0275 -0.165431,-0.17626 -0.187089,-0.18708 -0.01394,-0.007 -0.03575,0.011 -0.04677,0 -0.02466,-0.0247 -0.02212,-0.0689 -0.04677,-0.0935 -0.09677,-0.0968 0.0038,0.14788 -0.09355,-0.0468 -0.007,-0.0139 0.01103,-0.0358 0,-0.0468 -0.02466,-0.0247 -0.06454,-0.0274 -0.09354,-0.0468 -0.01834,-0.0122 -0.02913,-0.0336 -0.04677,-0.0468 -0.04497,-0.0337 -0.09535,-0.0598 -0.140317,-0.0935 -0.03528,-0.0265 -0.05685,-0.0691 -0.09354,-0.0936 -0.02901,-0.0193 -0.06454,-0.0274 -0.09354,-0.0468 -0.01833,-0.0122 -0.02843,-0.0345 -0.04677,-0.0468 -0.02901,-0.0193 -0.06889,-0.0221 -0.09354,-0.0468 -0.01103,-0.011 0.01103,-0.0357 0,-0.0468 -0.02466,-0.0247 -0.06454,-0.0274 -0.09355,-0.0468 -0.05397,-0.036 -0.08635,-0.10434 -0.140317,-0.14031 -0.02901,-0.0193 -0.06565,-0.0258 -0.09354,-0.0468 -0.03528,-0.0265 -0.06236,-0.0624 -0.09354,-0.0935 -0.01558,-0.0156 -0.02705,-0.0369 -0.04677,-0.0468 -0.01394,-0.007 -0.03575,0.011 -0.04677,0 -0.02466,-0.0247 -0.01889,-0.0726 -0.04677,-0.0936 -0.03944,-0.0296 -0.100875,-0.0172 -0.140317,-0.0468 -0.02789,-0.0209 -0.02212,-0.0689 -0.04677,-0.0935 -0.0493,-0.0493 -0.13131,-0.0517 -0.187089,-0.0935 -0.03528,-0.0264 -0.05827,-0.0671 -0.09354,-0.0935 -0.05578,-0.0418 -0.137787,-0.0442 -0.187089,-0.0935 -0.09677,-0.0968 0.147883,0.004 -0.04677,-0.0935 -0.03653,-0.0183 -0.192992,-0.0527 -0.233862,-0.0935 -0.01103,-0.011 0.01103,-0.0357 0,-0.0468 -0.02466,-0.0247 -0.06565,-0.0258 -0.09354,-0.0468 -0.03528,-0.0265 -0.05685,-0.0691 -0.09354,-0.0935 -0.01297,-0.009 -0.0338,0.009 -0.04677,0 -0.03669,-0.0245 -0.0541,-0.0738 -0.09354,-0.0935 -0.0575,-0.0288 -0.131968,-0.0137 -0.187089,-0.0468 -0.02989,-0.0179 -0.02212,-0.0689 -0.04677,-0.0935 -0.02466,-0.0247 -0.06565,-0.0258 -0.09354,-0.0468 -0.03528,-0.0264 -0.0541,-0.0738 -0.09354,-0.0935 -0.02789,-0.0139 -0.06566,0.0139 -0.09355,0 -0.03944,-0.0197 -0.05827,-0.0671 -0.09354,-0.0935 -0.02355,-0.10305 -0.09622,-0.0247 -0.140317,-0.0468 -0.214058,-0.10703 0.198475,0.0194 -0.140316,-0.0935 -0.01479,-0.005 -0.03283,0.007 -0.04677,0 -0.01971,-0.01 -0.02843,-0.0345 -0.04677,-0.0468 -0.339127,-0.16957 0.07395,0.0493 -0.140316,-0.0935 -0.02901,-0.0193 -0.06236,-0.0312 -0.09355,-0.0468 -0.03118,-0.0156 -0.06047,-0.0357 -0.09354,-0.0468 -0.01479,-0.005 -0.03283,0.007 -0.04677,0 -0.142634,-0.0713 0.08554,-0.0371 -0.140316,-0.0936 -0.03025,-0.008 -0.06396,0.01 -0.09354,0 -0.02093,-0.007 -0.02705,-0.0369 -0.04677,-0.0468 -0.04409,-0.022 -0.09929,-0.0194 -0.140316,-0.0468 -0.124725,-0.0831 0.187415,-0.0155 -0.04677,-0.0935 -0.02958,-0.01 -0.06396,0.01 -0.09355,0 -0.02093,-0.007 -0.03118,-0.0312 -0.04677,-0.0468 -0.03118,-0.0156 -0.06047,-0.0358 -0.09355,-0.0468 -0.139232,-0.0464 0.09597,0.11075 -0.140317,-0.0468 -0.107029,-0.0713 0.02925,-0.037 -0.140316,-0.0935 -0.01479,-0.005 -0.0338,0.009 -0.04677,0 -0.03669,-0.0244 -0.0541,-0.0738 -0.09354,-0.0935 -0.02789,-0.0139 -0.06329,0.008 -0.09354,0 -0.225862,-0.0565 0.0024,-0.0222 -0.140317,-0.0935 -0.01394,-0.007 -0.03283,0.007 -0.04677,0 -0.01971,-0.01 -0.02705,-0.0369 -0.04677,-0.0468 -0.115197,-0.0576 0.04223,0.13577 -0.140316,-0.0468 -0.01103,-0.011 0.01103,-0.0358 0,-0.0468 -0.01103,-0.011 -0.03283,0.007 -0.04677,0 -0.05028,-0.0251 -0.09004,-0.0684 -0.140316,-0.0935 -0.01394,-0.007 -0.03283,0.007 -0.04677,0 -0.03944,-0.0197 -0.05685,-0.0691 -0.09354,-0.0935 -0.05802,-0.0387 -0.129074,-0.0549 -0.187089,-0.0935 -0.04258,-0.0284 -0.09886,-0.11959 -0.140317,-0.14032 -0.01394,-0.007 -0.03283,0.007 -0.04677,0 -0.01971,-0.01 -0.02842,-0.0345 -0.04677,-0.0468 -0.02901,-0.0193 -0.06454,-0.0274 -0.09355,-0.0468 -0.01834,-0.0122 -0.02843,-0.0345 -0.04677,-0.0468 -0.05802,-0.0387 -0.131311,-0.0517 -0.18709,-0.0935 -0.03528,-0.0265 -0.05573,-0.0709 -0.09354,-0.0935 -0.04228,-0.0254 -0.09804,-0.0214 -0.140317,-0.0468 -0.03781,-0.0227 -0.05827,-0.0671 -0.09355,-0.0935 -0.05578,-0.0418 -0.129074,-0.0549 -0.187087,-0.0936 -0.01834,-0.0122 -0.02843,-0.0345 -0.04677,-0.0468 -0.02901,-0.0193 -0.06889,-0.0221 -0.09354,-0.0468 -0.01103,-0.011 0.01394,-0.0398 0,-0.0468 -0.02789,-0.0139 -0.06396,0.01 -0.09355,0 -0.03167,-0.0106 -0.104588,-0.12246 -0.140317,-0.14032 -0.0828,-0.0414 -0.01598,0.0696 -0.09354,-0.0468 -0.01934,-0.029 -0.02212,-0.0689 -0.04677,-0.0935 -0.01103,-0.011 -0.03283,0.007 -0.04677,0 -0.03944,-0.0197 -0.05685,-0.0691 -0.09355,-0.0935 -0.02901,-0.0193 -0.06565,-0.0258 -0.09354,-0.0468 -0.03528,-0.0265 -0.06236,-0.0624 -0.09354,-0.0936 -0.01558,-0.0156 -0.02705,-0.0369 -0.04677,-0.0468 -0.01394,-0.007 -0.03575,0.011 -0.04677,0 -0.02466,-0.0247 -0.02212,-0.0689 -0.04677,-0.0935 -0.01103,-0.011 -0.03575,0.011 -0.04677,0 -0.02466,-0.0247 -0.02212,-0.0689 -0.04677,-0.0935 -0.01103,-0.011 -0.03575,0.011 -0.04677,0 -0.02466,-0.0247 -0.01775,-0.0742 -0.04677,-0.0935 -0.02596,-0.0173 -0.07149,0.022 -0.09354,0 -0.02204,-0.022 0.0173,-0.0676 0,-0.0936 -0.01934,-0.029 -0.06454,-0.0274 -0.09355,-0.0468 -0.05504,-0.0367 -0.0874,-0.10063 -0.140317,-0.14032 -0.02789,-0.0209 -0.06889,-0.0221 -0.09354,-0.0468 -0.02466,-0.0247 -0.01889,-0.0726 -0.04677,-0.0935 -0.03944,-0.0296 -0.09622,-0.0247 -0.140317,-0.0468 -0.01934,-0.01 -0.127098,-0.12049 -0.140316,-0.14032 -0.01934,-0.029 -0.02212,-0.0689 -0.04677,-0.0935 -0.01103,-0.011 -0.03283,0.007 -0.04677,0 -0.01971,-0.01 -0.02843,-0.0345 -0.04677,-0.0468 -0.02901,-0.0193 -0.0742,-0.0178 -0.09354,-0.0468 -0.0173,-0.0259 0.02204,-0.0715 0,-0.0935 -0.02204,-0.022 -0.06566,0.0139 -0.09354,0 -0.01394,-0.007 0.007,-0.0328 0,-0.0468 -0.0097,-0.0193 -0.120494,-0.1271 -0.140317,-0.14031 -0.05801,-0.0387 -0.129077,-0.0549 -0.187089,-0.0935 -0.107453,-0.0716 0.02005,-0.0267 -0.09354,-0.14031 -0.003,-0.003 -0.178377,-0.0877 -0.187089,-0.0936 -0.01945,-0.013 -0.178726,-0.17036 -0.18709,-0.18709 -0.007,-0.0139 0.01103,-0.0357 0,-0.0468 -0.01103,-0.011 -0.03283,0.007 -0.04677,0 -0.01971,-0.01 -0.02843,-0.0345 -0.04677,-0.0468 -0.02901,-0.0193 -0.0689,-0.0221 -0.09354,-0.0468 -0.09677,-0.0968 0.147881,0.004 -0.04677,-0.0936 -0.01394,-0.007 -0.03283,0.007 -0.04677,0 -0.01971,-0.01 -0.03118,-0.0312 -0.04677,-0.0468 -0.01558,-0.0156 -0.03691,-0.0271 -0.04677,-0.0468 -0.007,-0.0139 0.01103,-0.0358 0,-0.0468 -0.02204,-0.022 -0.0715,0.022 -0.09355,0 -0.01103,-0.011 0.007,-0.0328 0,-0.0468 -0.0099,-0.0197 -0.03691,-0.0271 -0.04677,-0.0468 -0.007,-0.0139 0.007,-0.0328 0,-0.0468 -0.0099,-0.0197 -0.03118,-0.0312 -0.04677,-0.0468 -0.01558,-0.0156 -0.02705,-0.0369 -0.04677,-0.0468 -0.01394,-0.007 -0.03575,0.011 -0.04677,0 -0.01103,-0.011 0.007,-0.0328 0,-0.0468 -0.0099,-0.0197 -0.03691,-0.0271 -0.04677,-0.0468 -0.007,-0.0139 0.01103,-0.0358 0,-0.0468 -0.01103,-0.011 -0.03575,0.011 -0.04677,0 -0.01103,-0.011 0.01103,-0.0357 0,-0.0468 -0.01103,-0.011 -0.03283,0.007 -0.04677,0 -0.01971,-0.01 -0.03118,-0.0312 -0.04677,-0.0468 -0.01558,-0.0156 -0.03691,-0.0271 -0.04677,-0.0468 -0.007,-0.0139 0.01103,-0.0357 0,-0.0468 -0.01103,-0.011 -0.03575,0.011 -0.04677,0 -0.01103,-0.011 0.01103,-0.0358 0,-0.0468 -0.01103,-0.011 -0.03283,0.007 -0.04677,0 -0.05613,-0.0281 -0.08419,-0.11226 -0.140317,-0.14032 -0.02789,-0.0139 -0.07149,0.022 -0.09354,0 -0.01103,-0.011 0.01103,-0.0357 0,-0.0468 -0.01103,-0.011 -0.03575,0.011 -0.04677,0 -0.01103,-0.011 0.01103,-0.0357 0,-0.0468 -0.01103,-0.011 -0.03283,0.007 -0.04677,0 -0.01971,-0.01 -0.02705,-0.0369 -0.04677,-0.0468 -0.01394,-0.007 -0.03575,0.011 -0.04677,0 -0.01103,-0.011 0.01103,-0.0358 0,-0.0468 -0.02204,-0.022 -0.07149,0.022 -0.09354,0 -0.01103,-0.011 0.01103,-0.0357 0,-0.0468 -0.03117,-0.0312 -0.06238,0.0312 -0.09355,0 -0.01103,-0.011 0.01103,-0.0358 0,-0.0468 -0.02204,-0.022 -0.0715,0.022 -0.09354,0 -0.01103,-0.011 0.007,-0.0328 0,-0.0468 -0.0289,-0.0578 -0.04516,-0.0468 -0.09354,-0.0468 -0.01558,0 -0.04677,0.0156 -0.04677,0 0,-0.0156 0.06236,0 0.04677,0 -0.03118,0 -0.06566,-0.0139 -0.09355,0 -0.01394,0.007 0.01103,0.0358 0,0.0468 -0.02204,0.022 -0.0715,-0.022 -0.09354,0 -0.01103,0.011 0,0.0312 0,0.0468 0,0.0156 0,0.0312 0,0.0468 0,0.094 0.0016,0.0313 -0.01431,0.18758"
         id="path907"
         inkscape:connector-curvature="0" />
      <path
         style="fill:none;stroke:#000000;stroke-width:0.264583px;stroke-linecap:butt;stroke-linejoin:miter;stroke-opacity:1"
         d="M 71.270131,61.766132 5.785758,104.92628"
         id="path913"
         inkscape:connector-curvature="0" />
      <path
         style="fill:none;stroke:#000000;stroke-width:0.271955px;stroke-linecap:butt;stroke-linejoin:miter;stroke-opacity:1"
         d="M 77.643471,64.444021 10.851169,109.14992"
         id="path913-4"
         inkscape:connector-curvature="0" />
      <path
         style="fill:none;stroke:#000000;stroke-width:0.271955px;stroke-linecap:butt;stroke-linejoin:miter;stroke-opacity:1"
         d="m 84.238261,69.074473 -66.7923,44.705897"
         id="path913-4-2"
         inkscape:connector-curvature="0" />
      <path
         style="fill:none;stroke:#000000;stroke-width:0.271955px;stroke-linecap:butt;stroke-linejoin:miter;stroke-opacity:1"
         d="M 91.126371,73.793993 24.334069,118.49988"
         id="path913-4-2-1"
         inkscape:connector-curvature="0" />
      <path
         style="fill:none;stroke:#000000;stroke-width:0.271955px;stroke-linecap:butt;stroke-linejoin:miter;stroke-opacity:1"
         d="M 98.944011,78.604833 32.151702,123.31073"
         id="path913-4-2-1-9"
         inkscape:connector-curvature="0" />
      <path
         style="fill:none;stroke:#000000;stroke-width:0.271955px;stroke-linecap:butt;stroke-linejoin:miter;stroke-opacity:1"
         d="M 106.16029,83.716363 39.367975,128.42226"
         id="path913-4-2-1-9-2"
         inkscape:connector-curvature="0" />
      <path
         style="fill:none;stroke:#000000;stroke-width:0.271955px;stroke-linecap:butt;stroke-linejoin:miter;stroke-opacity:1"
         d="M 112.87544,87.625183 46.083118,132.33108"
         id="path913-4-2-1-9-2-3"
         inkscape:connector-curvature="0" />
      <path
         style="fill:none;stroke:#000000;stroke-width:0.271955px;stroke-linecap:butt;stroke-linejoin:miter;stroke-opacity:1"
         d="M 119.28991,92.235583 52.497581,136.94148"
         id="path913-4-2-1-9-2-3-8"
         inkscape:connector-curvature="0" />
      <path
         style="fill:none;stroke:#000000;stroke-width:0.271955px;stroke-linecap:butt;stroke-linejoin:miter;stroke-opacity:1"
         d="M 126.50618,96.445083 59.713851,141.15098"
         id="path913-4-2-1-9-2-3-8-4"
         inkscape:connector-curvature="0" />
      <path
         style="fill:none;stroke:#000000;stroke-width:0.264583px;stroke-linecap:butt;stroke-linejoin:miter;stroke-opacity:1"
         d="M 37.252272,124.77003 102.02794,80.972043"
         id="path1" />
      <path
         style="fill:#e6e6e6;fill-opacity:1;stroke:#000000;stroke-width:1;stroke-linecap:butt;stroke-linejoin:miter;stroke-dasharray:none;stroke-opacity:1"
         d="M 37.194389,124.65414 38.186576,103.1095 102.14957,80.865743 Z"
         id="path2" />
    </g>
  </g>
</svg>
